
<svg height="496pt" viewBox="-40 0 496 496.20787" width="496pt" xmlns="http://www.w3.org/2000/svg" xmlns:xlink="http://www.w3.org/1999/xlink"><linearGradient id="lg1"><stop offset="0" stop-color="#003f8a"/><stop offset=".518" stop-color="#00d7df"/><stop offset="1" stop-color="#006df0"/></linearGradient><linearGradient id="linear0" gradientUnits="userSpaceOnUse" x1="-32.768065" x2="506.671935" xlink:href="#lg1" y1="541.647875" y2="2.215875"/><linearGradient id="linear1" gradientUnits="userSpaceOnUse" x1="-59.048065" x2="480.383935" xlink:href="#lg1" y1="515.359875" y2="-24.072125"/><linearGradient id="linear2" gradientUnits="userSpaceOnUse" x1="158.951935" x2="698.383935" xlink:href="#lg1" y1="733.359875" y2="193.927875"/><path d="m376.105469 480.207031h-160v-40c1.6875.003907 3.332031-.53125 4.695312-1.527343l36.726563-26.710938c23.007812 24.355469 60.984375 26.632812 86.742187 5.207031 25.757813-21.425781 30.425781-59.183593 10.667969-86.242187-19.761719-27.054688-57.148438-34.097656-85.398438-16.082032-28.25 18.015626-37.632812 54.882813-21.433593 84.210938l-32 23.25v-102.511719c86.695312-4.339843 154.121093-77.023437 151.949219-163.800781-2.171876-86.78125-73.144532-156-159.949219-156-86.808594 0-157.78125 69.21875-159.953125 156-2.167969 86.777344 65.253906 159.460938 151.953125 163.800781v160.40625h-192c-4.417969 0-8 3.582031-8 8s3.582031 8 8 8h368c4.417969 0 8-3.582031 8-8s-3.582031-8-8-8zm-120-112c-.050781-22.910156 16.0625-42.675781 38.511719-47.242187 22.449218-4.566406 45.003906 7.328125 53.910156 28.4375 8.90625 21.105468 1.691406 45.566406-17.246094 58.460937-18.933594 12.894531-44.335938 10.644531-60.714844-5.375l38.242188-27.808593c3.574218-2.597657 4.367187-7.601563 1.765625-11.175782-2.597657-3.574218-7.601563-4.367187-11.175781-1.769531l-38.230469 27.808594c-3.324219-6.621094-5.054688-13.925781-5.0625-21.335938zm-192-208c-.101563-78.511719 62.707031-142.636719 141.207031-144.15625 78.496094-1.523437 143.746094 60.117188 146.691406 138.574219 2.941406 78.457031-57.507812 144.8125-135.898437 149.175781v-52.28125l45.65625-45.65625c3.03125-3.136719 2.988281-8.128906-.097657-11.214843-3.085937-3.085938-8.078124-3.128907-11.214843-.097657l-34.34375 34.34375v-68.6875c0-4.417969-3.582031-8-8-8s-8 3.582031-8 8v44.6875l-50.34375-50.34375c-3.140625-3.03125-8.128907-2.988281-11.214844.097657-3.085937 3.085937-3.128906 8.078124-.097656 11.214843l61.65625 61.65625v76.28125c-76.21875-4.269531-135.875-67.253906-136-143.59375zm0 0" fill="url(#linear0)"/><path d="m272.105469 192.207031c2.121093 0 4.15625-.84375 5.65625-2.34375l8-8c3.03125-3.136719 2.988281-8.128906-.097657-11.214843-3.085937-3.085938-8.078124-3.128907-11.214843-.097657l-8 8c-2.289063 2.289063-2.972657 5.730469-1.734375 8.71875 1.238281 2.988281 4.152344 4.9375 7.390625 4.9375zm0 0" fill="url(#linear1)"/><path d="m408.105469 480.207031h-8c-4.417969 0-8 3.582031-8 8s3.582031 8 8 8h8c4.417969 0 8-3.582031 8-8s-3.582031-8-8-8zm0 0" fill="url(#linear2)"/></svg>