<svg height="480pt" viewBox="0 0 480.01083 480" width="480pt" xmlns="http://www.w3.org/2000/svg" xmlns:xlink="http://www.w3.org/1999/xlink"><linearGradient id="a"><stop offset="0" stop-color="#fff200"/><stop offset="1" stop-color="#cd118c"/></linearGradient><linearGradient id="b" gradientUnits="userSpaceOnUse" x1="-4.348961" x2="531.091039" xlink:href="#a" y1="489.437415" y2="8.925415"/><linearGradient id="c" gradientUnits="userSpaceOnUse" x1="-36.556961" x2="498.875039" xlink:href="#a" y1="453.541415" y2="-26.978585"/><linearGradient id="d" gradientUnits="userSpaceOnUse" x1="-72.348961" x2="463.083039" xlink:href="#a" y1="413.661415" y2="-66.858585"/><linearGradient id="e" gradientUnits="userSpaceOnUse" x1="-82.266825" x2="453.165175" xlink:href="#a" y1="402.602589" y2="-77.909411"/><linearGradient id="f" gradientUnits="userSpaceOnUse" x1="-46.482596" x2="488.957404" xlink:href="#a" y1="442.493356" y2="-38.026644"/><linearGradient id="g" gradientUnits="userSpaceOnUse" x1="-.772961" x2="534.667039" xlink:href="#a" y1="493.421415" y2="12.901415"/><linearGradient id="h" gradientUnits="userSpaceOnUse" x1="9.152372" x2="544.592372" xlink:href="#a" y1="504.477757" y2="23.957757"/><linearGradient id="i" gradientUnits="userSpaceOnUse" x1="-26.633894" x2="508.798106" xlink:href="#a" y1="464.593857" y2="-15.926143"/><linearGradient id="j" gradientUnits="userSpaceOnUse" x1="21.251039" x2="556.691039" xlink:href="#a" y1="517.965415" y2="37.445415"/><linearGradient id="k" gradientUnits="userSpaceOnUse" x1="-26.260961" x2="509.171039" xlink:href="#a" y1="465.021415" y2="-15.498585"/><linearGradient id="l" gradientUnits="userSpaceOnUse" x1="44.811039" x2="580.243039" xlink:href="#a" y1="544.213415" y2="63.693415"/><linearGradient id="m" gradientUnits="userSpaceOnUse" x1="91.203039" x2="626.643039" xlink:href="#a" y1="595.909415" y2="115.389415"/><linearGradient id="n" gradientUnits="userSpaceOnUse" x1="131.171039" x2="666.611039" xlink:href="#a" y1="640.445415" y2="159.933415"/><path d="m479.769531 470.0625-40-160c-.890625-3.558594-4.089843-6.058594-7.757812-6.058594h-336v-48.496094c44.800781-4.980468 80-51.261718 80-107.503906.390625-28.886718-9.597657-56.953125-28.144531-79.101562-9.65625-41.304688-33.542969-68.89843775-59.855469-68.89843775s-50.199219 27.59374975-59.855469 68.89843775c-18.550781 22.148437-28.535156 50.214844-28.1445312 79.101562 0 56.242188 35.1992192 102.523438 80.0000002 107.503906v48.496094h-32c-3.671875 0-6.867188 2.5-7.761719 6.058594l-40 160c-.597656 2.390625-.0625 4.921875 1.453125 6.863281 1.515625 1.945313 3.84375 3.078125 6.308594 3.078125h464c2.464843 0 4.789062-1.132812 6.304687-3.078125 1.515625-1.941406 2.054688-4.472656 1.453125-6.863281zm-463.757812-322.058594c-.445313-25.609375 8.574219-50.484375 25.335937-69.855468.976563-1.070313 1.660156-2.375 1.976563-3.792969 7.445312-33.8125 26.238281-58.351563 44.6875-58.351563s37.238281 24.539063 44.6875 58.351563c.316406 1.417969.996093 2.722656 1.976562 3.792969 16.757813 19.371093 25.78125 44.246093 25.335938 69.855468 0 47.273438-28.058594 86.289063-64 91.402344v-34.601562l20.382812-10.085938c3.953125-1.964844 5.574219-6.757812 3.617188-10.714844-1.960938-3.957031-6.761719-5.574218-10.71875-3.613281l-13.28125 6.574219v-50.960938c0-4.417968-3.582031-8-8-8s-8 3.582032-8 8v10.25l-12.710938-11.046875c-3.339843-2.898437-8.394531-2.539062-11.289062.796875-2.898438 3.339844-2.539063 8.394532.800781 11.289063l23.199219 20.152343v72c-35.945313-5.152343-64-44.167968-64-91.441406zm280 260v-40h64.109375l11.507812 40zm80.222656 16 11.503906 40h-91.726562v-40zm-264.726563-16 9.382813-40h63.121094v40zm72.503907 16v40h-85.601563l9.386719-40zm-88.945313-16h-62.808594l10-40h62.203126zm29.601563-56 7.511719-32h51.832031v32zm75.34375 16h80v40h-80zm96-16v-32h50.296875l9.207031 32zm80.800781 16h60.992188l10 40h-59.53125zm56.992188-16h-61.601563l-9.207031-32h62.808594zm-153.792969-32v32h-80v-32zm-225.753907 0h61.457032l-7.503906 32h-61.953126zm-26 104h63.058594l-9.386718 40h-63.671876zm171.753907 40v-40h80v40zm204.375 0-11.503907-40h58.878907l10 40zm0 0" fill="url(#b)"/><path d="m344.011719 160.003906c26.507812 0 48-21.488281 48-48 0-26.507812-21.492188-48-48-48-26.511719 0-48 21.492188-48 48 .027343 26.5 21.5 47.976563 48 48zm0-80c17.671875 0 32 14.328125 32 32 0 17.675782-14.328125 32-32 32s-32-14.324218-32-32c0-17.671875 14.328125-32 32-32zm0 0" fill="url(#c)"/><path d="m336.011719 32.003906h16v16h-16zm0 0" fill="url(#d)"/><path d="m270.734375 78.929688 8-13.855469 13.855469 8-8 13.855469zm0 0" fill="url(#e)"/><path d="m270.734375 145.070312 13.855469-8 8 13.859376-13.855469 7.996093zm0 0" fill="url(#f)"/><path d="m336.011719 176.003906h16v16h-16zm0 0" fill="url(#g)"/><path d="m395.441406 150.9375 8-13.855469 13.855469 8-8 13.855469zm0 0" fill="url(#h)"/><path d="m395.4375 73.074219 13.859375-8 7.996094 13.859375-13.855469 7.996094zm0 0" fill="url(#i)"/><path d="m216.011719 328.003906h16v16h-16zm0 0" fill="url(#j)"/><path d="m56.011719 376.003906h16v16h-16zm0 0" fill="url(#k)"/><path d="m144.011719 440.003906h16v16h-16zm0 0" fill="url(#l)"/><path d="m248.011719 440.003906h16v16h-16zm0 0" fill="url(#m)"/><path d="m400.011719 384.003906h16v16h-16zm0 0" fill="url(#n)"/></svg>